<svg width="720" height="1024" viewBox="0 0 720 1024" fill="none" xmlns="http://www.w3.org/2000/svg">
<rect width="720" height="1024" fill="url(#paint0_linear_186_3011)"/>
<mask id="mask0_186_3011" style="mask-type:alpha" maskUnits="userSpaceOnUse" x="2" y="747" width="235" height="273">
<path d="M82.4987 857.661C6.59797 972.141 39.5129 1041.75 156.184 1013.01C272.855 984.274 260.384 954.914 128.447 947.493C-3.48992 940.072 -36.4942 870.46 54.7618 792.142C146.018 713.825 158.399 743.182 82.4987 857.661Z" stroke="#404040" stroke-width="0.840798" stroke-miterlimit="10"/>
<path d="M84.4637 861.639C23.5329 961.792 53.6379 1025.27 151.667 1003.36C249.695 981.452 238.416 954.702 126.39 943.625C14.3642 932.547 -15.7408 869.067 59.1873 801.902C134.115 734.737 145.397 761.375 84.4637 861.639Z" stroke="#404040" stroke-width="0.840798" stroke-miterlimit="10"/>
<path d="M86.5191 865.508C38.9317 952.17 66.1375 1009.52 147.24 993.603C228.342 977.688 218.168 953.434 124.337 939.533C30.5061 925.632 3.38961 868.287 63.6164 811.438C123.843 754.589 134.106 778.847 86.5191 865.508Z" stroke="#404040" stroke-width="0.840798" stroke-miterlimit="10"/>
<path d="M88.4824 869.486C52.7012 943.497 77.0052 994.824 142.81 983.956C208.612 973.199 199.451 951.549 122.368 935.667C45.284 919.786 20.9774 868.569 68.0402 821.197C115.103 773.825 124.353 795.478 88.4824 869.486Z" stroke="#404040" stroke-width="0.840798" stroke-miterlimit="10"/>
<path d="M90.545 873.354C64.9435 935.55 86.3482 980.746 138.39 974.197C190.431 967.647 182.371 948.715 120.408 931.689C58.4453 914.663 36.9513 869.464 72.5633 830.847C108.175 792.23 116.144 811.27 90.545 873.354Z" stroke="#404040" stroke-width="0.840798" stroke-miterlimit="10"/>
<path d="M92.5103 877.332C75.4644 928.438 93.97 967.502 133.873 964.547C173.776 961.591 166.82 945.155 118.265 927.706C69.7069 910.369 51.2014 871.305 76.9024 840.492C102.603 809.679 109.556 826.227 92.5103 877.332Z" stroke="#404040" stroke-width="0.840798" stroke-miterlimit="10"/>
<path d="M94.5596 881.312C84.4403 922.275 100.136 955.21 129.529 954.902C158.922 954.593 152.98 940.76 116.292 923.839C79.6045 906.918 63.9982 873.986 81.323 850.25C98.6478 826.514 104.59 840.346 94.5596 881.312Z" stroke="#404040" stroke-width="0.840798" stroke-miterlimit="10"/>
<path d="M96.5272 885.178C91.7997 916.727 104.594 943.642 125.012 945.251C145.43 946.861 140.593 935.524 114.325 919.974C87.9673 904.42 75.2627 877.509 85.8403 859.901C96.4179 842.293 101.255 853.63 96.5272 885.178Z" stroke="#404040" stroke-width="0.840798" stroke-miterlimit="10"/>
<path d="M98.5832 889.159C97.7103 912.133 107.516 932.913 120.585 935.605C133.657 938.185 129.923 929.455 112.272 915.994C94.6209 902.532 84.8156 881.753 90.27 869.549C95.7245 857.345 99.4561 866.186 98.5832 889.159Z" stroke="#404040" stroke-width="0.840798" stroke-miterlimit="10"/>
<path d="M100.553 893.024C101.819 908.256 108.812 923.019 116.072 925.842C123.333 928.665 120.791 922.545 110.22 912.013C99.6485 901.48 92.7424 886.832 94.7002 879.195C96.658 871.559 99.287 877.793 100.553 893.024Z" stroke="#404040" stroke-width="0.840798" stroke-miterlimit="10"/>
<path d="M102.607 897.005C104.475 905.334 108.568 913.965 111.734 916.198C114.899 918.43 113.373 914.803 108.342 908.15C103.31 901.497 99.2167 892.866 99.2152 888.958C99.2136 885.049 100.74 888.676 102.607 897.005Z" stroke="#404040" stroke-width="0.840798" stroke-miterlimit="10"/>
</mask>
<g mask="url(#mask0_186_3011)">
<g opacity="0.5">
<rect width="351.505" height="439.469" transform="matrix(-1 0 0 1 220.897 677.024)" fill="url(#paint1_linear_186_3011)"/>
<rect width="351.505" height="439.469" transform="matrix(-1 0 0 1 220.897 677.024)" fill="url(#paint2_linear_186_3011)"/>
</g>
</g>
<mask id="mask1_186_3011" style="mask-type:alpha" maskUnits="userSpaceOnUse" x="381" y="5" width="336" height="391">
<path d="M601.938 238.042C710.558 74.2137 663.454 -25.4015 496.49 15.7245C329.525 56.8505 347.372 98.8671 536.183 109.486C724.994 120.106 772.226 219.726 641.632 331.804C511.038 443.883 493.319 401.871 601.938 238.042Z" stroke="#404040" stroke-width="1.20324" stroke-miterlimit="10"/>
<path d="M599.126 232.35C686.322 89.0244 643.24 -1.82004 502.954 29.5348C362.668 60.8896 378.809 99.1707 539.126 115.023C699.444 130.875 742.526 221.72 635.298 317.838C528.071 413.957 511.926 375.835 599.126 232.35Z" stroke="#404040" stroke-width="1.20324" stroke-miterlimit="10"/>
<path d="M596.186 226.813C664.287 102.794 625.354 20.7246 509.291 43.5005C393.228 66.2765 407.788 100.986 542.066 120.879C676.345 140.772 715.15 222.837 628.961 304.192C542.773 385.547 528.085 350.833 596.186 226.813Z" stroke="#404040" stroke-width="1.20324" stroke-miterlimit="10"/>
<path d="M593.372 221.122C644.577 115.207 609.797 41.7534 515.626 57.3069C421.459 72.7008 434.568 103.684 544.88 126.412C655.192 149.139 689.976 222.433 622.626 290.226C555.276 358.019 542.039 327.032 593.372 221.122Z" stroke="#404040" stroke-width="1.20324" stroke-miterlimit="10"/>
<path d="M590.428 215.584C627.065 126.578 596.433 61.8994 521.958 71.2722C447.483 80.645 459.018 107.738 547.691 132.103C636.364 156.469 667.124 221.152 616.161 276.415C565.197 331.679 553.794 304.431 590.428 215.584Z" stroke="#404040" stroke-width="1.20324" stroke-miterlimit="10"/>
<path d="M587.614 209.893C612.008 136.757 585.525 80.8539 528.421 85.083C471.318 89.3121 481.271 112.834 550.757 137.804C620.247 162.616 646.73 218.519 609.95 262.614C573.17 306.709 563.22 283.028 587.614 209.893Z" stroke="#404040" stroke-width="1.20324" stroke-miterlimit="10"/>
<path d="M584.675 204.196C599.156 145.575 576.695 98.4428 534.631 98.8847C492.568 99.3267 501.071 119.122 553.574 143.337C606.077 167.552 628.41 214.68 603.617 248.649C578.824 282.617 570.321 262.822 584.675 204.196Z" stroke="#404040" stroke-width="1.20324" stroke-miterlimit="10"/>
<path d="M581.861 198.664C588.626 153.516 570.317 114.999 541.097 112.695C511.878 110.391 518.799 126.615 556.391 148.869C594.11 171.127 612.292 209.64 597.154 234.838C582.017 260.036 575.095 243.812 581.861 198.664Z" stroke="#404040" stroke-width="1.20324" stroke-miterlimit="10"/>
<path d="M578.921 192.968C580.171 160.091 566.138 130.354 547.435 126.501C528.728 122.809 534.072 135.301 559.332 154.565C584.592 173.83 598.624 203.567 590.818 221.032C583.012 238.497 577.672 225.844 578.921 192.968Z" stroke="#404040" stroke-width="1.20324" stroke-miterlimit="10"/>
<path d="M576.104 187.435C574.292 165.638 564.285 144.511 553.894 140.471C543.504 136.431 547.142 145.188 562.27 160.262C577.398 175.335 587.281 196.297 584.48 207.226C581.678 218.154 577.916 209.233 576.104 187.435Z" stroke="#404040" stroke-width="1.20324" stroke-miterlimit="10"/>
<path d="M573.161 181.739C570.488 169.819 564.63 157.468 560.1 154.273C555.57 151.078 557.755 156.268 564.955 165.79C572.155 175.311 578.013 187.662 578.015 193.256C578.018 198.849 575.833 193.658 573.161 181.739Z" stroke="#404040" stroke-width="1.20324" stroke-miterlimit="10"/>
</mask>
<g mask="url(#mask1_186_3011)">
<g opacity="0.3">
<rect width="503.029" height="628.912" transform="matrix(1 0 0 -1 403.882 496.546)" fill="url(#paint3_linear_186_3011)"/>
<rect width="503.029" height="628.912" transform="matrix(1 0 0 -1 403.882 496.546)" fill="url(#paint4_linear_186_3011)"/>
</g>
</g>
<path fill-rule="evenodd" clip-rule="evenodd" d="M355.149 563.206C355.149 567.611 351.475 571.269 347.027 571.232C342.867 571.2 339.063 567.735 339.115 563.21C339.167 558.574 342.561 555.23 347.148 555.234C351.606 555.239 354.879 558.214 355.149 563.206Z" fill="white"/>
<path fill-rule="evenodd" clip-rule="evenodd" d="M388.775 563.208C388.775 567.611 385.099 571.269 380.654 571.232C376.493 571.2 372.69 567.733 372.742 563.21C372.796 558.571 376.19 555.23 380.775 555.234C385.231 555.239 388.506 558.212 388.775 563.208Z" fill="white"/>
<path fill-rule="evenodd" clip-rule="evenodd" d="M334.972 563.251C335.267 567.458 331.36 571.327 326.993 571.238C322.94 571.157 319.014 567.598 319.083 563.101C319.149 558.785 322.828 555.17 327.079 555.198C331.502 555.228 335.213 558.757 334.972 563.249V563.251Z" fill="white"/>
<path d="M334.14 456.247L329.162 458.803C328.025 456.909 324.896 455.111 321.293 455.111C316.648 455.111 314.42 457.051 314.42 459.513C314.42 462.401 317.833 463.205 321.815 463.679C328.736 464.531 335.183 466.329 335.183 474.235C335.183 481.619 328.641 484.791 321.246 484.791C314.467 484.791 309.253 482.708 306.788 476.649L312.002 473.951C313.472 477.596 317.311 479.205 321.341 479.205C325.275 479.205 328.973 477.832 328.973 474.235C328.973 471.11 325.702 469.832 321.293 469.359C314.515 468.554 308.257 466.756 308.257 459.324C308.257 452.507 314.989 449.714 321.104 449.667C326.271 449.667 331.627 451.134 334.14 456.247Z" fill="#E5C480"/>
<path d="M366.381 483.939L363.584 477.69H346.234L343.39 483.939H336.611L351.496 450.803H358.322L373.207 483.939H366.381ZM361.072 471.868L354.909 457.762L348.747 471.868H361.072Z" fill="#E5C480"/>
<path d="M381.504 469.596V478.116H391.08C393.64 478.116 397.29 477.264 397.29 474.14C397.29 471.158 393.64 469.596 391.08 469.596H381.504ZM381.504 456.483V464.105H391.08C395.014 464.105 396.294 462.448 396.294 460.554C396.294 459.04 395.062 456.483 391.08 456.483H381.504ZM391.08 450.803C397.622 450.803 402.504 453.738 402.504 460.412C402.504 462.969 401.272 465.43 398.19 466.803C402.078 467.986 403.5 472.105 403.5 474.187C403.5 481.572 397.953 483.939 391.08 483.939C385.818 483.939 380.604 483.939 375.342 483.939V450.803C380.556 450.803 385.818 450.803 391.08 450.803Z" fill="#E5C480"/>
<path d="M432.635 477.785V483.939H407.795C407.795 472.909 407.795 461.832 407.795 450.803H432.635V456.862H414.005V464.483H431.972V470.306H414.005V477.785H432.635Z" fill="#E5C480"/>
<path d="M462.217 477.785V483.939H437.377C437.377 472.909 437.377 461.832 437.377 450.803H462.217V456.862H443.587V464.483H461.553V470.306H443.587V477.785H462.217Z" fill="#E5C480"/>
<path d="M467.053 450.803H473.31V478.164H490.376V483.939H467.053V450.803Z" fill="#E5C480"/>
<path fill-rule="evenodd" clip-rule="evenodd" d="M215 521.335V521.193C215 515.052 215.002 508.911 215 502.77C215 502.652 215.039 502.577 215.131 502.501C215.593 502.127 216.047 501.744 216.504 501.367C216.965 500.986 217.431 500.61 217.894 500.229C218.252 499.934 218.605 499.637 218.96 499.343C219.316 499.048 219.676 498.757 220.033 498.463C220.29 498.252 220.542 498.039 220.796 497.828C221.048 497.619 221.3 497.413 221.55 497.206C221.919 496.903 222.285 496.597 222.654 496.294C222.897 496.091 223.143 495.891 223.386 495.691C223.656 495.467 223.927 495.244 224.196 495.022C224.44 494.82 224.683 494.62 224.929 494.417C225.185 494.207 225.44 493.998 225.696 493.789C225.97 493.563 226.246 493.339 226.519 493.111C226.773 492.9 227.028 492.687 227.282 492.477C227.526 492.274 227.771 492.074 228.015 491.872C228.284 491.648 228.555 491.424 228.825 491.203C229.081 490.992 229.338 490.783 229.592 490.575C229.945 490.284 230.296 489.991 230.65 489.699C231.023 489.391 231.393 489.086 231.766 488.78C232.022 488.569 232.281 488.363 232.531 488.145C233.052 487.696 233.6 487.285 234.242 487.022C234.466 486.932 234.694 486.852 234.925 486.779C235.112 486.719 235.306 486.671 235.498 486.628C235.625 486.6 235.757 486.575 235.886 486.57C236.293 486.553 236.7 486.488 237.112 486.557C237.312 486.592 237.519 486.592 237.72 486.622C237.849 486.639 237.976 486.678 238.101 486.714C238.347 486.788 238.594 486.854 238.836 486.945C239.293 487.117 239.723 487.343 240.109 487.64C240.506 487.945 240.889 488.27 241.277 488.586C241.635 488.879 241.995 489.172 242.35 489.466C242.714 489.768 243.076 490.071 243.44 490.37C243.789 490.658 244.141 490.945 244.49 491.233C244.854 491.532 245.218 491.835 245.582 492.134C245.942 492.431 246.304 492.726 246.666 493.025C246.91 493.225 247.153 493.428 247.397 493.63C247.666 493.854 247.937 494.075 248.209 494.297C248.457 494.501 248.704 494.708 248.952 494.912C249.219 495.132 249.484 495.351 249.752 495.573C250.004 495.779 250.254 495.988 250.506 496.195C250.76 496.406 251.016 496.616 251.271 496.827C251.534 497.045 251.794 497.262 252.059 497.479C252.314 497.69 252.57 497.901 252.826 498.11C253.085 498.323 253.344 498.538 253.604 498.751C253.848 498.951 254.093 499.153 254.337 499.353C254.606 499.577 254.878 499.801 255.147 500.022C255.511 500.324 255.878 500.623 256.242 500.922C256.479 501.116 256.716 501.311 256.953 501.507C257.22 501.727 257.485 501.948 257.75 502.17C257.912 502.303 258.071 502.437 258.235 502.568C258.293 502.615 258.321 502.671 258.312 502.744C258.308 502.779 258.312 502.813 258.312 502.845V521.352C258.312 521.352 258.293 521.363 258.282 521.369C258.194 521.298 258.103 521.229 258.017 521.156C257.438 520.666 256.858 520.175 256.278 519.682C255.862 519.329 255.451 518.972 255.035 518.619C254.63 518.277 254.223 517.937 253.818 517.595C253.406 517.247 252.997 516.894 252.583 516.543C252.29 516.293 251.993 516.05 251.7 515.801C251.406 515.551 251.116 515.301 250.823 515.052C250.53 514.802 250.234 514.555 249.941 514.307C249.663 514.071 249.383 513.836 249.105 513.6C248.793 513.335 248.483 513.07 248.17 512.806C247.873 512.554 247.578 512.3 247.28 512.048C247.007 511.816 246.731 511.583 246.455 511.351C246.14 511.084 245.824 510.815 245.509 510.548C245.237 510.318 244.968 510.088 244.697 509.858C244.369 509.58 244.044 509.303 243.716 509.027C243.43 508.786 243.143 508.543 242.856 508.302C242.555 508.048 242.255 507.792 241.954 507.536C241.667 507.293 241.383 507.052 241.096 506.809C240.788 506.546 240.48 506.286 240.172 506.023C239.879 505.776 239.583 505.529 239.288 505.279C238.997 505.034 238.706 504.791 238.422 504.541C238.129 504.285 237.795 504.111 237.422 503.994C237.168 503.915 236.909 503.885 236.649 503.88C236.127 503.876 235.64 504.005 235.199 504.289C235.056 504.382 234.927 504.492 234.796 504.601C234.386 504.945 233.981 505.296 233.574 505.643C233.162 505.991 232.746 506.338 232.333 506.686C232.042 506.931 231.757 507.181 231.467 507.426C231.165 507.682 230.863 507.934 230.562 508.188C230.279 508.427 229.999 508.668 229.717 508.909C229.413 509.167 229.107 509.423 228.801 509.681C228.525 509.914 228.252 510.148 227.978 510.381C227.663 510.647 227.347 510.914 227.03 511.183C226.752 511.42 226.474 511.657 226.196 511.893C225.884 512.158 225.571 512.42 225.259 512.685C224.972 512.928 224.688 513.171 224.401 513.412C224.097 513.671 223.791 513.927 223.485 514.185C223.199 514.428 222.914 514.671 222.628 514.912C222.32 515.172 222.012 515.435 221.703 515.695C221.425 515.932 221.145 516.169 220.867 516.403C220.555 516.668 220.242 516.932 219.932 517.197C219.643 517.442 219.355 517.69 219.066 517.935C218.773 518.185 218.478 518.432 218.185 518.68C217.892 518.929 217.599 519.177 217.306 519.426C217.004 519.682 216.704 519.936 216.403 520.19C216.114 520.435 215.823 520.681 215.534 520.926C215.368 521.066 215.203 521.208 215.037 521.348C215.026 521.343 215.013 521.339 215.002 521.333L215 521.335Z" fill="#E5C480"/>
<path d="M334.885 563.178C334.885 558.765 331.302 555.183 326.885 555.183C322.468 555.183 318.884 558.765 318.884 563.178C318.884 567.591 322.468 571.174 326.885 571.174C331.302 571.174 334.885 567.593 334.885 563.178ZM354.823 563.178C354.823 558.765 351.24 555.183 346.823 555.183C342.405 555.183 338.822 558.765 338.822 563.178C338.822 567.591 342.405 571.174 346.823 571.174C351.24 571.174 354.823 567.593 354.823 563.178ZM388.435 563.178C388.435 558.765 384.85 555.183 380.434 555.183C376.019 555.183 372.434 558.765 372.434 563.178C372.434 567.591 376.019 571.174 380.434 571.174C384.85 571.174 388.435 567.593 388.435 563.178ZM505 489.705H490.066V529.298H469.408V493.058H454.939V529.298H434.234V492.991H419.868V529.298H388.295V489.705H373.746V529.298H344.118V489.705H329.542V529.298H300.192V449H285.667V557.812C285.667 559.824 284.034 561.457 282.021 561.457H247.386C245.373 561.457 243.74 559.824 243.74 557.812V517.554H229.413V562.335C229.413 569.879 235.539 576 243.085 576H286.402C293.948 576 300.073 569.879 300.073 562.335V543.82H505V489.705Z" fill="white"/>
<path fill-rule="evenodd" clip-rule="evenodd" d="M355.149 563.206C355.149 567.611 351.475 571.269 347.027 571.232C342.867 571.2 339.063 567.735 339.115 563.21C339.167 558.574 342.561 555.23 347.148 555.234C351.606 555.239 354.879 558.214 355.149 563.206Z" />
<path fill-rule="evenodd" clip-rule="evenodd" d="M388.775 563.208C388.775 567.611 385.099 571.269 380.654 571.232C376.493 571.2 372.69 567.733 372.742 563.21C372.796 558.571 376.19 555.23 380.775 555.234C385.231 555.239 388.506 558.212 388.775 563.208Z" />
<path fill-rule="evenodd" clip-rule="evenodd" d="M334.972 563.251C335.267 567.458 331.36 571.327 326.993 571.238C322.94 571.157 319.014 567.598 319.083 563.101C319.149 558.785 322.828 555.17 327.079 555.198C331.502 555.228 335.213 558.757 334.972 563.249V563.251Z" />
<path d="M334.14 456.247L329.162 458.803C328.025 456.909 324.896 455.111 321.293 455.111C316.648 455.111 314.42 457.051 314.42 459.513C314.42 462.401 317.833 463.205 321.815 463.679C328.736 464.531 335.183 466.329 335.183 474.235C335.183 481.619 328.641 484.791 321.246 484.791C314.467 484.791 309.253 482.708 306.788 476.649L312.002 473.951C313.472 477.596 317.311 479.205 321.341 479.205C325.275 479.205 328.973 477.832 328.973 474.235C328.973 471.11 325.702 469.832 321.293 469.359C314.515 468.554 308.257 466.756 308.257 459.324C308.257 452.507 314.989 449.714 321.104 449.667C326.271 449.667 331.627 451.134 334.14 456.247Z" />
<path d="M366.381 483.939L363.584 477.69H346.234L343.39 483.939H336.611L351.496 450.803H358.322L373.207 483.939H366.381ZM361.072 471.868L354.909 457.762L348.747 471.868H361.072Z" />
<path d="M381.504 469.596V478.116H391.08C393.64 478.116 397.29 477.264 397.29 474.14C397.29 471.158 393.64 469.596 391.08 469.596H381.504ZM381.504 456.483V464.105H391.08C395.014 464.105 396.294 462.448 396.294 460.554C396.294 459.04 395.062 456.483 391.08 456.483H381.504ZM391.08 450.803C397.622 450.803 402.504 453.738 402.504 460.412C402.504 462.969 401.272 465.43 398.19 466.803C402.078 467.986 403.5 472.105 403.5 474.187C403.5 481.572 397.953 483.939 391.08 483.939C385.818 483.939 380.604 483.939 375.342 483.939V450.803C380.556 450.803 385.818 450.803 391.08 450.803Z" />
<path d="M432.635 477.785V483.939H407.795C407.795 472.909 407.795 461.832 407.795 450.803H432.635V456.862H414.005V464.483H431.972V470.306H414.005V477.785H432.635Z" />
<path d="M462.217 477.785V483.939H437.377C437.377 472.909 437.377 461.832 437.377 450.803H462.217V456.862H443.587V464.483H461.553V470.306H443.587V477.785H462.217Z" />
<path d="M467.053 450.803H473.31V478.164H490.376V483.939H467.053V450.803Z" />
<path fill-rule="evenodd" clip-rule="evenodd" d="M215 521.335V521.193C215 515.052 215.002 508.911 215 502.77C215 502.652 215.039 502.577 215.131 502.501C215.593 502.127 216.047 501.744 216.504 501.367C216.965 500.986 217.431 500.61 217.894 500.229C218.252 499.934 218.605 499.637 218.96 499.343C219.316 499.048 219.676 498.757 220.033 498.463C220.29 498.252 220.542 498.039 220.796 497.828C221.048 497.619 221.3 497.413 221.55 497.206C221.919 496.903 222.285 496.597 222.654 496.294C222.897 496.091 223.143 495.891 223.386 495.691C223.656 495.467 223.927 495.244 224.196 495.022C224.44 494.82 224.683 494.62 224.929 494.417C225.185 494.207 225.44 493.998 225.696 493.789C225.97 493.563 226.246 493.339 226.519 493.111C226.773 492.9 227.028 492.687 227.282 492.477C227.526 492.274 227.771 492.074 228.015 491.872C228.284 491.648 228.555 491.424 228.825 491.203C229.081 490.992 229.338 490.783 229.592 490.575C229.945 490.284 230.296 489.991 230.65 489.699C231.023 489.391 231.393 489.086 231.766 488.78C232.022 488.569 232.281 488.363 232.531 488.145C233.052 487.696 233.6 487.285 234.242 487.022C234.466 486.932 234.694 486.852 234.925 486.779C235.112 486.719 235.306 486.671 235.498 486.628C235.625 486.6 235.757 486.575 235.886 486.57C236.293 486.553 236.7 486.488 237.112 486.557C237.312 486.592 237.519 486.592 237.72 486.622C237.849 486.639 237.976 486.678 238.101 486.714C238.347 486.788 238.594 486.854 238.836 486.945C239.293 487.117 239.723 487.343 240.109 487.64C240.506 487.945 240.889 488.27 241.277 488.586C241.635 488.879 241.995 489.172 242.35 489.466C242.714 489.768 243.076 490.071 243.44 490.37C243.789 490.658 244.141 490.945 244.49 491.233C244.854 491.532 245.218 491.835 245.582 492.134C245.942 492.431 246.304 492.726 246.666 493.025C246.91 493.225 247.153 493.428 247.397 493.63C247.666 493.854 247.937 494.075 248.209 494.297C248.457 494.501 248.704 494.708 248.952 494.912C249.219 495.132 249.484 495.351 249.752 495.573C250.004 495.779 250.254 495.988 250.506 496.195C250.76 496.406 251.016 496.616 251.271 496.827C251.534 497.045 251.794 497.262 252.059 497.479C252.314 497.69 252.57 497.901 252.826 498.11C253.085 498.323 253.344 498.538 253.604 498.751C253.848 498.951 254.093 499.153 254.337 499.353C254.606 499.577 254.878 499.801 255.147 500.022C255.511 500.324 255.878 500.623 256.242 500.922C256.479 501.116 256.716 501.311 256.953 501.507C257.22 501.727 257.485 501.948 257.75 502.17C257.912 502.303 258.071 502.437 258.235 502.568C258.293 502.615 258.321 502.671 258.312 502.744C258.308 502.779 258.312 502.813 258.312 502.845V521.352C258.312 521.352 258.293 521.363 258.282 521.369C258.194 521.298 258.103 521.229 258.017 521.156C257.438 520.666 256.858 520.175 256.278 519.682C255.862 519.329 255.451 518.972 255.035 518.619C254.63 518.277 254.223 517.937 253.818 517.595C253.406 517.247 252.997 516.894 252.583 516.543C252.29 516.293 251.993 516.05 251.7 515.801C251.406 515.551 251.116 515.301 250.823 515.052C250.53 514.802 250.234 514.555 249.941 514.307C249.663 514.071 249.383 513.836 249.105 513.6C248.793 513.335 248.483 513.07 248.17 512.806C247.873 512.554 247.578 512.3 247.28 512.048C247.007 511.816 246.731 511.583 246.455 511.351C246.14 511.084 245.824 510.815 245.509 510.548C245.237 510.318 244.968 510.088 244.697 509.858C244.369 509.58 244.044 509.303 243.716 509.027C243.43 508.786 243.143 508.543 242.856 508.302C242.555 508.048 242.255 507.792 241.954 507.536C241.667 507.293 241.383 507.052 241.096 506.809C240.788 506.546 240.48 506.286 240.172 506.023C239.879 505.776 239.583 505.529 239.288 505.279C238.997 505.034 238.706 504.791 238.422 504.541C238.129 504.285 237.795 504.111 237.422 503.994C237.168 503.915 236.909 503.885 236.649 503.88C236.127 503.876 235.64 504.005 235.199 504.289C235.056 504.382 234.927 504.492 234.796 504.601C234.386 504.945 233.981 505.296 233.574 505.643C233.162 505.991 232.746 506.338 232.333 506.686C232.042 506.931 231.757 507.181 231.467 507.426C231.165 507.682 230.863 507.934 230.562 508.188C230.279 508.427 229.999 508.668 229.717 508.909C229.413 509.167 229.107 509.423 228.801 509.681C228.525 509.914 228.252 510.148 227.978 510.381C227.663 510.647 227.347 510.914 227.03 511.183C226.752 511.42 226.474 511.657 226.196 511.893C225.884 512.158 225.571 512.42 225.259 512.685C224.972 512.928 224.688 513.171 224.401 513.412C224.097 513.671 223.791 513.927 223.485 514.185C223.199 514.428 222.914 514.671 222.628 514.912C222.32 515.172 222.012 515.435 221.703 515.695C221.425 515.932 221.145 516.169 220.867 516.403C220.555 516.668 220.242 516.932 219.932 517.197C219.643 517.442 219.355 517.69 219.066 517.935C218.773 518.185 218.478 518.432 218.185 518.68C217.892 518.929 217.599 519.177 217.306 519.426C217.004 519.682 216.704 519.936 216.403 520.19C216.114 520.435 215.823 520.681 215.534 520.926C215.368 521.066 215.203 521.208 215.037 521.348C215.026 521.343 215.013 521.339 215.002 521.333L215 521.335Z" />
<path d="M334.885 563.178C334.885 558.765 331.302 555.183 326.885 555.183C322.468 555.183 318.884 558.765 318.884 563.178C318.884 567.591 322.468 571.174 326.885 571.174C331.302 571.174 334.885 567.593 334.885 563.178ZM354.823 563.178C354.823 558.765 351.24 555.183 346.823 555.183C342.405 555.183 338.822 558.765 338.822 563.178C338.822 567.591 342.405 571.174 346.823 571.174C351.24 571.174 354.823 567.593 354.823 563.178ZM388.435 563.178C388.435 558.765 384.85 555.183 380.434 555.183C376.019 555.183 372.434 558.765 372.434 563.178C372.434 567.591 376.019 571.174 380.434 571.174C384.85 571.174 388.435 567.593 388.435 563.178ZM505 489.705H490.066V529.298H469.408V493.058H454.939V529.298H434.234V492.991H419.868V529.298H388.295V489.705H373.746V529.298H344.118V489.705H329.542V529.298H300.192V449H285.667V557.812C285.667 559.824 284.034 561.457 282.021 561.457H247.386C245.373 561.457 243.74 559.824 243.74 557.812V517.554H229.413V562.335C229.413 569.879 235.539 576 243.085 576H286.402C293.948 576 300.073 569.879 300.073 562.335V543.82H505V489.705Z" />
<defs>
<linearGradient id="paint0_linear_186_3011" x1="720" y1="7.54146e-05" x2="-184.619" y2="236.8" gradientUnits="userSpaceOnUse">
<stop stop-color="#2F2E7C"/>
<stop offset="0.503013" stop-color="#2F2E7C"/>
<stop offset="1" stop-color="#2F2E7C"/>
</linearGradient>
<linearGradient id="paint1_linear_186_3011" x1="131.479" y1="128.625" x2="213.316" y2="293.757" gradientUnits="userSpaceOnUse">
<stop stop-color="#EE9011"/>
<stop offset="1" stop-color="#822700"/>
</linearGradient>
<linearGradient id="paint2_linear_186_3011" x1="138.079" y1="161.746" x2="209.572" y2="294.697" gradientUnits="userSpaceOnUse">
<stop stop-color="#A681ED"/>
<stop offset="1" stop-color="#7B19FB"/>
</linearGradient>
<linearGradient id="paint3_linear_186_3011" x1="188.155" y1="184.072" x2="305.27" y2="420.388" gradientUnits="userSpaceOnUse">
<stop stop-color="#EE9011"/>
<stop offset="1" stop-color="#822700"/>
</linearGradient>
<linearGradient id="paint4_linear_186_3011" x1="197.6" y1="231.47" x2="299.912" y2="421.732" gradientUnits="userSpaceOnUse">
<stop stop-color="#A681ED"/>
<stop offset="1" stop-color="#7B19FB"/>
</linearGradient>
</defs>
</svg>
